<?xml version="1.0" encoding="UTF-8"?>
<!DOCTYPE svg PUBLIC "-//W3C//DTD SVG 1.1//EN" "http://www.w3.org/Graphics/SVG/1.1/DTD/svg11.dtd">
<svg xmlns="http://www.w3.org/2000/svg" version="1.1" width="1027px" height="361px" style="shape-rendering:geometricPrecision; text-rendering:geometricPrecision; image-rendering:optimizeQuality; fill-rule:evenodd; clip-rule:evenodd" xmlns:xlink="http://www.w3.org/1999/xlink">
<g><path style="opacity:0.494" fill="#eeefff" d="M 356.5,167.5 C 347.393,98.8815 311.06,50.7148 247.5,23C 174.595,-0.232512 111.762,15.6008 59,70.5C 34.6741,98.9564 21.1741,131.956 18.5,169.5C 18.1667,169.5 17.8333,169.5 17.5,169.5C 22.6568,109.209 50.9901,63.3752 102.5,32C 136.753,12.8167 173.42,5.81672 212.5,11C 274.776,22.0237 318.943,56.1904 345,113.5C 352.955,130.651 356.789,148.651 356.5,167.5 Z"/></g>
<g><path style="opacity:1" fill="#9afbfb" d="M 203.5,17.5 C 260.191,24.5781 303.025,52.5781 332,101.5C 340.528,117.252 346.361,133.918 349.5,151.5C 351.153,166.11 351.82,180.777 351.5,195.5C 344.226,257.569 312.892,302.736 257.5,331C 239.65,338.963 220.983,343.796 201.5,345.5C 188.482,345.661 175.482,345.327 162.5,344.5C 156.454,343.757 150.454,342.757 144.5,341.5C 143.791,340.596 142.791,340.263 141.5,340.5C 79.1122,319.781 40.4455,277.448 25.5,213.5C 25.0217,208.273 24.0217,203.273 22.5,198.5C 18.7416,126.837 47.4083,72.67 108.5,36C 125.505,27.0536 143.505,21.2203 162.5,18.5C 176.15,17.688 189.817,17.3547 203.5,17.5 Z"/></g>
<g><path style="opacity:1" fill="#1c2dff" d="M 356.5,167.5 C 356.5,175.833 356.5,184.167 356.5,192.5C 351.529,244.447 328.529,286.447 287.5,318.5C 285.973,318.427 284.973,319.094 284.5,320.5C 280.975,321.759 277.975,323.759 275.5,326.5C 270.333,328.916 265.333,331.582 260.5,334.5C 260.158,335.338 259.492,335.672 258.5,335.5C 247.178,339.662 235.678,343.329 224,346.5C 222.97,346.836 222.47,347.503 222.5,348.5C 222.167,348.5 221.833,348.5 221.5,348.5C 217.446,347.504 213.446,347.838 209.5,349.5C 190.466,349.796 171.466,349.462 152.5,348.5C 149.887,345.84 146.554,344.507 142.5,344.5C 142.285,342.821 142.952,341.821 144.5,341.5C 150.454,342.757 156.454,343.757 162.5,344.5C 169.939,346.022 177.606,346.689 185.5,346.5C 191.011,346.499 196.344,346.166 201.5,345.5C 220.983,343.796 239.65,338.963 257.5,331C 312.892,302.736 344.226,257.569 351.5,195.5C 352.658,185.675 352.825,175.675 352,165.5C 351.477,160.638 350.644,155.972 349.5,151.5C 346.361,133.918 340.528,117.252 332,101.5C 303.025,52.5781 260.191,24.5781 203.5,17.5C 198.01,16.8339 192.343,16.5005 186.5,16.5C 178.274,16.3023 170.274,16.969 162.5,18.5C 143.505,21.2203 125.505,27.0536 108.5,36C 47.4083,72.67 18.7416,126.837 22.5,198.5C 22.678,202.122 22.0114,205.456 20.5,208.5C 18.6748,195.624 18.0081,182.624 18.5,169.5C 21.1741,131.956 34.6741,98.9564 59,70.5C 111.762,15.6008 174.595,-0.232512 247.5,23C 311.06,50.7148 347.393,98.8815 356.5,167.5 Z"/></g>
<g><path style="opacity:1" fill="#f33227" d="M 140.5,38.5 C 141.376,38.3691 142.043,38.7025 142.5,39.5C 142.013,40.4461 141.68,41.4461 141.5,42.5C 143.163,47.1617 144.83,51.8284 146.5,56.5C 145.635,57.5827 144.635,57.7494 143.5,57C 138.935,53.8735 134.269,51.7068 129.5,50.5C 130.833,53.5 132.167,56.5 133.5,59.5C 134.729,60.2811 136.062,60.7811 137.5,61C 135.351,62.1638 133.185,63.3305 131,64.5C 131.374,62.2313 131.374,59.898 131,57.5C 129.526,54.2444 128.36,50.911 127.5,47.5C 122.409,46.8172 122.576,45.8172 128,44.5C 132.72,46.4431 137.22,48.7764 141.5,51.5C 142.053,47.2702 140.386,43.9369 136.5,41.5C 137.901,40.4793 139.235,39.4793 140.5,38.5 Z"/></g>
<g><path style="opacity:1" fill="#f33125" d="M 229.5,39.5 C 229.735,38.9033 230.235,38.5699 231,38.5C 234.833,40 238.667,41.5 242.5,43C 245.418,46.4719 245.085,49.4719 241.5,52C 238.46,52.3201 235.46,52.3201 232.5,52C 229.758,54.9979 230.091,57.3313 233.5,59C 229.902,59.0241 226.568,58.0241 223.5,56C 224.766,55.6905 225.933,55.1905 227,54.5C 228.507,50.1568 230.007,45.8235 231.5,41.5C 231.145,40.4777 230.478,39.811 229.5,39.5 Z"/></g>
<g><path style="opacity:1" fill="#9feeed" d="M 235.5,42.5 C 240.068,42.0826 241.568,44.0826 240,48.5C 237.724,51.0662 235.557,50.8995 233.5,48C 234.077,46.0999 234.744,44.2666 235.5,42.5 Z"/></g>
<g><path style="opacity:1" fill="#f43025" d="M 162.5,33.5 C 164.086,35.0808 165.086,37.0808 165.5,39.5C 165.167,39.8333 164.833,40.1667 164.5,40.5C 162.526,36.8301 159.526,35.6634 155.5,37C 152.624,42.6627 153.291,47.9961 157.5,53C 162.329,53.6678 164.329,51.5011 163.5,46.5C 162.325,46.719 161.325,46.3857 160.5,45.5C 163.447,44.3422 166.447,43.8422 169.5,44C 168.572,44.3879 167.905,45.0546 167.5,46C 168.459,48.1199 168.626,50.2865 168,52.5C 167.333,51.8333 166.667,51.1667 166,50.5C 161.947,55.0076 157.28,55.6743 152,52.5C 148.191,46.4614 148.691,40.9614 153.5,36C 155.955,34.3695 158.455,34.2028 161,35.5C 161.717,34.9558 162.217,34.2891 162.5,33.5 Z"/></g>
<g><path style="opacity:1" fill="#f52e22" d="M 203.5,34.5 C 203.917,33.8761 204.584,33.5427 205.5,33.5C 207.5,34 209.5,34.5 211.5,35C 208.452,36.7299 207.786,39.2299 209.5,42.5C 211.747,43.3742 214.08,43.7076 216.5,43.5C 216.768,40.8806 216.435,38.3806 215.5,36C 218.227,35.1816 220.894,35.3483 223.5,36.5C 222.675,37.3857 221.675,37.719 220.5,37.5C 219.944,41.8396 219.277,46.1729 218.5,50.5C 218.79,52.0441 219.456,53.3774 220.5,54.5C 220.167,54.8333 219.833,55.1667 219.5,55.5C 216.823,54.9258 214.157,54.2592 211.5,53.5C 212.325,52.6143 213.325,52.281 214.5,52.5C 214.627,50.0846 214.793,47.7513 215,45.5C 212.619,44.565 210.119,44.2317 207.5,44.5C 207.02,47.6852 207.686,50.5185 209.5,53C 206.398,53.3476 203.398,52.8476 200.5,51.5C 201.325,50.6143 202.325,50.281 203.5,50.5C 204.211,44.9902 204.211,39.6569 203.5,34.5 Z"/></g>
<g><path style="opacity:1" fill="#bba6a6" d="M 186.5,34.5 C 186.833,34.5 187.167,34.5 187.5,34.5C 187.5,39.8333 187.5,45.1667 187.5,50.5C 186.5,50.5 185.5,50.5 184.5,50.5C 186.37,45.4682 187.037,40.1348 186.5,34.5 Z"/></g>
<g><path style="opacity:1" fill="#fc0908" d="M 191.5,49.5 C 192.263,50.2679 193.263,50.7679 194.5,51C 190.973,51.8075 187.64,51.6408 184.5,50.5C 185.5,50.5 186.5,50.5 187.5,50.5C 187.5,45.1667 187.5,39.8333 187.5,34.5C 188.209,33.596 189.209,33.2627 190.5,33.5C 190.179,39.0262 190.512,44.3595 191.5,49.5 Z"/></g>
<g><path style="opacity:1" fill="#ef2f2a" d="M 191.5,49.5 C 190.512,44.3595 190.179,39.0262 190.5,33.5C 189.209,33.2627 188.209,33.596 187.5,34.5C 187.167,34.5 186.833,34.5 186.5,34.5C 186.103,33.475 185.437,33.3083 184.5,34C 182.959,35.5793 181.792,37.4127 181,39.5C 180.503,37.1902 180.337,34.8568 180.5,32.5C 186.167,32.5 191.833,32.5 197.5,32.5C 197.838,35.0115 197.838,37.3448 197.5,39.5C 196.573,37.8872 195.739,36.2205 195,34.5C 193.989,33.6634 192.822,33.33 191.5,33.5C 191.5,38.8333 191.5,44.1667 191.5,49.5 Z"/></g>
<g><path style="opacity:1" fill="#7bc7ff" d="M 203.5,17.5 C 189.817,17.3547 176.15,17.688 162.5,18.5C 170.274,16.969 178.274,16.3023 186.5,16.5C 192.343,16.5005 198.01,16.8339 203.5,17.5 Z"/></g>
<g><path style="opacity:1" fill="#f6281d" d="M 255.5,49.5 C 253.037,49.7811 250.87,50.7811 249,52.5C 249.28,47.3521 251.447,46.3521 255.5,49.5 Z"/></g>
<g><path style="opacity:1" fill="#f52920" d="M 102.5,47.5 C 104.655,47.372 106.655,47.872 108.5,49C 107.5,49.1667 106.5,49.3333 105.5,49.5C 103.97,49.3601 102.97,48.6935 102.5,47.5 Z"/></g>
<g><path style="opacity:1" fill="#f42e23" d="M 255.5,49.5 C 259.721,50.4351 263.054,52.6018 265.5,56C 263.145,61.9105 261.978,61.4105 262,54.5C 261,53.1667 260,53.1667 259,54.5C 256.579,58.3403 254.412,62.3403 252.5,66.5C 252.977,67.4776 253.643,68.3109 254.5,69C 251.23,68.5369 248.23,67.2036 245.5,65C 246.938,64.7811 248.271,64.2811 249.5,63.5C 252.096,58.987 254.096,54.3203 255.5,49.5 Z"/></g>
<g><path style="opacity:1" fill="#f5291f" d="M 113.5,46.5 C 114.822,46.33 115.989,46.6634 117,47.5C 116.842,51.4158 118.509,54.0824 122,55.5C 126.287,62.6318 124.787,68.1318 117.5,72C 108.198,72.3621 104.031,67.8621 105,58.5C 107.365,54.1493 111.032,51.816 116,51.5C 116.188,49.9387 115.355,49.272 113.5,49.5C 113.5,48.5 113.5,47.5 113.5,46.5 Z"/></g>
<g><path style="opacity:1" fill="#9ef2f1" d="M 109.5,54.5 C 113.888,53.9433 117.055,55.6099 119,59.5C 123.379,65.9244 121.879,69.4244 114.5,70C 108.497,65.9099 106.831,60.7432 109.5,54.5 Z"/></g>
<g><path style="opacity:1" fill="#fefe03" d="M 306.5,172.5 C 306.68,181.528 306.347,190.528 305.5,199.5C 293.117,259.05 256.783,292.883 196.5,301C 139.969,302.442 99.8023,277.609 76,226.5C 57.3413,172.968 68.8413,127.134 110.5,89C 147.238,60.5429 187.571,54.2095 231.5,70C 276.296,89.6358 301.296,123.802 306.5,172.5 Z"/></g>
<g><path style="opacity:1" fill="#f42c22" d="M 285.5,75.5 C 284.833,73.5 284.167,71.5 283.5,69.5C 281.251,65.8394 278.917,65.6728 276.5,69C 277.868,71.5666 279.368,74.0666 281,76.5C 282.176,83.1937 279.343,85.6937 272.5,84C 270.077,82.4293 268.744,80.2626 268.5,77.5C 267.448,77.6495 266.448,77.4828 265.5,77C 266.726,75.3651 268.059,73.8651 269.5,72.5C 269.552,74.5699 269.719,76.9032 270,79.5C 272.128,82.4578 274.794,83.1244 278,81.5C 277.708,78.4786 276.375,75.8119 274,73.5C 272.902,66.2566 275.735,63.7566 282.5,66C 284.179,68.2007 286.179,70.034 288.5,71.5C 287.476,72.8518 286.476,74.1851 285.5,75.5 Z"/></g>
<g><path style="opacity:1" fill="#f23629" d="M 94.5,59.5 C 95.8221,59.33 96.9887,59.6634 98,60.5C 97.8446,62.8107 97.8446,65.144 98,67.5C 100.944,70.7623 103.444,74.2623 105.5,78C 104.154,83.8409 100.487,86.5076 94.5,86C 91.1298,82.965 88.1298,79.6317 85.5,76C 84.1667,76 82.8333,76 81.5,76C 83.6829,73.6496 86.0163,71.483 88.5,69.5C 88.8797,71.0207 89.0464,72.6874 89,74.5C 91.5,77 94,79.5 96.5,82C 102,83.1667 104.167,81 103,75.5C 99.8903,71.8241 96.3903,68.8241 92.5,66.5C 94.1667,65.5 95.5,64.1667 96.5,62.5C 95.3881,61.7348 94.7214,60.7348 94.5,59.5 Z"/></g>
<g><path style="opacity:1" fill="#c8908d" d="M 283.5,69.5 C 284.167,71.5 284.833,73.5 285.5,75.5C 285.44,76.0431 285.107,76.3764 284.5,76.5C 283.526,74.2573 283.192,71.924 283.5,69.5 Z"/></g>
<g><path style="opacity:0.958" fill="#fefffe" d="M 521.5,72.5 C 535.171,72.3334 548.837,72.5001 562.5,73C 572.578,73.1783 582.244,75.1783 591.5,79C 594.106,80.9384 595.939,83.4384 597,86.5C 598.99,94.7087 600.157,103.042 600.5,111.5C 590.167,111.5 579.833,111.5 569.5,111.5C 570.26,106.186 568.26,102.353 563.5,100C 550.548,98.4328 537.548,98.0995 524.5,99C 517.681,99.1528 514.181,102.653 514,109.5C 513.109,119.228 513.443,128.894 515,138.5C 515.5,141.667 517.333,143.5 520.5,144C 534.833,146 549.167,146 563.5,144C 568.242,141.686 570.242,137.852 569.5,132.5C 579.833,132.5 590.167,132.5 600.5,132.5C 600.157,140.958 598.99,149.291 597,157.5C 595.167,162 592,165.167 587.5,167C 560.292,172.107 532.959,172.773 505.5,169C 500.5,168.251 495.833,166.584 491.5,164C 486.933,157.251 484.433,149.751 484,141.5C 483.333,128.5 483.333,115.5 484,102.5C 484.084,93.5756 486.917,85.7422 492.5,79C 501.972,75.3947 511.638,73.228 521.5,72.5 Z"/></g>
<g><path style="opacity:0.957" fill="#fefffe" d="M 939.5,72.5 C 956.855,72.2709 974.189,72.7709 991.5,74C 1003.31,76.8186 1009.81,84.3186 1011,96.5C 1011.5,99.8168 1011.67,103.15 1011.5,106.5C 1001.5,106.5 991.5,106.5 981.5,106.5C 981.922,99.4226 978.589,96.2559 971.5,97C 960.167,96.3333 948.833,96.3333 937.5,97C 932.039,96.7883 929.872,99.2883 931,104.5C 933.412,107.455 936.579,108.955 940.5,109C 955.521,109.243 970.521,109.91 985.5,111C 1005.43,111.428 1014.76,121.594 1013.5,141.5C 1013.89,148.6 1012.39,155.267 1009,161.5C 1007.13,163.709 1004.96,165.542 1002.5,167C 995.009,169.304 987.342,170.637 979.5,171C 962.167,171.667 944.833,171.667 927.5,171C 905.099,170.442 895.766,158.942 899.5,136.5C 909.5,136.5 919.5,136.5 929.5,136.5C 928.234,143.062 930.901,146.562 937.5,147C 951.5,147.667 965.5,147.667 979.5,147C 983.729,144.887 984.563,141.721 982,137.5C 981.25,136.874 980.416,136.374 979.5,136C 961.518,134.889 943.518,133.889 925.5,133C 906.755,131.908 898.422,121.908 900.5,103C 899.749,94.3227 902.083,86.656 907.5,80C 909.167,79 910.833,78 912.5,77C 921.471,74.4676 930.471,72.9676 939.5,72.5 Z"/></g>
<g><path style="opacity:0.955" fill="#fefffe" d="M 372.5,73.5 C 382.5,73.5 392.5,73.5 402.5,73.5C 402.5,97.1667 402.5,120.833 402.5,144.5C 424.5,144.5 446.5,144.5 468.5,144.5C 468.5,153.167 468.5,161.833 468.5,170.5C 436.5,170.5 404.5,170.5 372.5,170.5C 372.5,138.167 372.5,105.833 372.5,73.5 Z"/></g>
<g><path style="opacity:0.958" fill="#fefffe" d="M 667.5,74.5 C 682.833,74.5 698.167,74.5 713.5,74.5C 713.5,106.5 713.5,138.5 713.5,170.5C 703.5,170.5 693.5,170.5 683.5,170.5C 683.5,146.833 683.5,123.167 683.5,99.5C 682.127,99.3433 680.793,99.51 679.5,100C 669.685,108.314 660.018,116.814 650.5,125.5C 645.144,119.312 639.977,112.978 635,106.5C 636.578,102.886 639.078,99.7193 642.5,97C 651.284,89.9512 659.617,82.4512 667.5,74.5 Z"/></g>
<g><path style="opacity:0.964" fill="#fefffe" d="M 753.5,74.5 C 763.5,74.5 773.5,74.5 783.5,74.5C 783.5,85.5 783.5,96.5 783.5,107.5C 804.167,107.5 824.833,107.5 845.5,107.5C 845.5,96.5 845.5,85.5 845.5,74.5C 855.5,74.5 865.5,74.5 875.5,74.5C 875.5,106.5 875.5,138.5 875.5,170.5C 865.5,170.5 855.5,170.5 845.5,170.5C 845.5,158.167 845.5,145.833 845.5,133.5C 824.833,133.5 804.167,133.5 783.5,133.5C 783.5,145.833 783.5,158.167 783.5,170.5C 773.5,170.5 763.5,170.5 753.5,170.5C 753.5,138.5 753.5,106.5 753.5,74.5 Z"/></g>
<g><path style="opacity:1" fill="#f13429" d="M 298.5,77.5 C 304.613,76.1009 306.446,78.1009 304,83.5C 303.51,82.2068 303.343,80.8734 303.5,79.5C 301.219,79.9227 299.552,79.256 298.5,77.5 Z"/></g>
<g><path style="opacity:1" fill="#f22e26" d="M 307.5,83.5 C 308.919,82.5489 310.585,82.2155 312.5,82.5C 312.719,83.675 312.386,84.675 311.5,85.5C 310.14,84.8201 308.807,84.1534 307.5,83.5 Z"/></g>
<g><path style="opacity:1" fill="#f7241b" d="M 289.5,79.5 C 300.033,79.5207 303.867,84.5207 301,94.5C 294.508,101.425 288.508,101.092 283,93.5C 281.669,87.1632 283.836,82.4965 289.5,79.5 Z"/></g>
<g><path style="opacity:1" fill="#9ff1f1" d="M 292.5,82.5 C 297.835,82.005 300.335,84.3384 300,89.5C 297.795,92.0402 295.295,94.2068 292.5,96C 287.014,97.8253 284.514,95.9919 285,90.5C 287.028,87.3078 289.528,84.6411 292.5,82.5 Z"/></g>
<g><path style="opacity:1" fill="#f52a1f" d="M 74.5,83.5 C 76.7925,83.2436 78.9592,83.5769 81,84.5C 81.3744,86.898 81.3744,89.2313 81,91.5C 83.619,90.2708 86.119,90.6041 88.5,92.5C 89.2508,91.624 89.7508,90.624 90,89.5C 91.7184,91.2021 91.885,93.0355 90.5,95C 87.2475,95.7913 84.2475,95.2913 81.5,93.5C 79.2956,93.5269 78.4622,94.5269 79,96.5C 80.2547,97.2106 81.4214,98.044 82.5,99C 84.0846,99.0848 85.4179,99.2514 86.5,99.5C 84.476,101.69 82.6427,104.023 81,106.5C 80.9343,103.724 79.7676,101.558 77.5,100C 74.8333,98 72.1667,96 69.5,94C 68.2624,94.0773 67.2624,93.9106 66.5,93.5C 69.1751,90.1362 71.8418,86.8029 74.5,83.5 Z"/></g>
<g><path style="opacity:1" fill="#a7e3e2" d="M 73.5,86.5 C 80.0469,87.1425 81.0469,89.8092 76.5,94.5C 72.1508,92.6361 71.1508,89.9694 73.5,86.5 Z"/></g>
<g><path style="opacity:1" fill="#f42c22" d="M 61.5,99.5 C 64.1795,99.6726 66.5128,100.673 68.5,102.5C 66.6565,102.755 64.6565,102.922 62.5,103C 60.8753,103.853 60.5419,104.853 61.5,106C 65.8333,108.5 70.1667,111 74.5,113.5C 75.2575,112.189 76.2575,111.689 77.5,112C 75.5421,114.748 73.7088,117.582 72,120.5C 72.2626,119.049 72.0959,117.716 71.5,116.5C 67.0479,113.607 62.3812,111.274 57.5,109.5C 57.1459,112.421 58.1459,114.754 60.5,116.5C 60.1667,116.833 59.8333,117.167 59.5,117.5C 57.6115,116.396 55.9448,115.063 54.5,113.5C 56.8599,108.78 59.1932,104.114 61.5,99.5 Z"/></g>
<g><path style="opacity:1" fill="#f52c20" d="M 311.5,104.5 C 313.63,106.127 315.63,107.96 317.5,110C 313.759,112.732 309.759,115.066 305.5,117C 303.996,118.491 303.163,120.324 303,122.5C 301.365,119.368 299.532,116.368 297.5,113.5C 297.833,113.167 298.167,112.833 298.5,112.5C 299.328,113.415 300.328,114.081 301.5,114.5C 305.672,112.917 309.339,110.583 312.5,107.5C 311.873,106.583 311.539,105.583 311.5,104.5 Z"/></g>
<g><path style="opacity:1" fill="#ff1600" d="M 156.5,187.5 C 155.957,187.56 155.624,187.893 155.5,188.5C 167.994,189.825 180.327,189.825 192.5,188.5C 196.167,188.5 199.833,188.5 203.5,188.5C 202.438,193.686 200.771,198.686 198.5,203.5C 176.844,204.5 155.177,204.833 133.5,204.5C 141.293,177.787 149.293,151.12 157.5,124.5C 163.711,122.817 170.045,122.15 176.5,122.5C 169.986,144.224 163.319,165.891 156.5,187.5 Z"/></g>
<g><path style="opacity:1" fill="#fb1d05" d="M 96.5,197.5 C 120.636,214.069 146.636,227.235 174.5,237C 186.492,238.94 198.492,238.94 210.5,237C 227.671,232.489 236.837,221.322 238,203.5C 238.499,199.848 238.665,196.182 238.5,192.5C 239.33,181.674 239.83,170.674 240,159.5C 241.449,142.57 249.949,130.903 265.5,124.5C 261.178,124.467 257.178,125.967 253.5,129C 241.816,139.868 236.482,153.368 237.5,169.5C 237.635,180.861 237.135,192.194 236,203.5C 234.82,220.006 226.32,230.506 210.5,235C 197.402,237.328 184.402,236.995 171.5,234C 144.918,224.545 120.252,211.712 97.5,195.5C 98.8121,193.521 100.479,191.855 102.5,190.5C 125.36,206.43 150.027,218.93 176.5,228C 188.216,228.887 199.883,228.554 211.5,227C 223.213,221.774 229.046,212.607 229,199.5C 229.897,185.178 230.564,170.844 231,156.5C 233.51,137.002 243.843,123.669 262,116.5C 265.496,120.826 267.996,125.826 269.5,131.5C 258.775,134.724 251.942,141.724 249,152.5C 247.126,170.454 245.793,188.454 245,206.5C 242.929,224.56 233.429,236.727 216.5,243C 201.56,245.879 186.56,246.212 171.5,244C 142.664,234.084 115.998,220.251 91.5,202.5C 92.8545,200.479 94.5212,198.812 96.5,197.5 Z"/></g>
<g><path style="opacity:1" fill="#ff2b00" d="M 192.5,139.5 C 201.573,138.691 209.406,141.357 216,147.5C 217.009,149.025 217.509,150.692 217.5,152.5C 215.076,152.808 212.743,152.474 210.5,151.5C 203.454,143.452 195.454,142.452 186.5,148.5C 180.433,156.085 179.933,164.085 185,172.5C 191.511,178.169 198.678,179.002 206.5,175C 208.915,172.258 211.415,169.758 214,167.5C 215.812,167.493 217.312,168.16 218.5,169.5C 214.567,178.639 207.567,182.973 197.5,182.5C 180.758,181.254 173.258,172.254 175,155.5C 177.869,146.832 183.702,141.499 192.5,139.5 Z"/></g>
<g><path style="opacity:1" fill="#5cc2c2" d="M 238.5,192.5 C 238.825,184.648 238.492,176.982 237.5,169.5C 236.482,153.368 241.816,139.868 253.5,129C 257.178,125.967 261.178,124.467 265.5,124.5C 249.949,130.903 241.449,142.57 240,159.5C 239.83,170.674 239.33,181.674 238.5,192.5 Z"/></g>
<g><path style="opacity:1" fill="#66a9ff" d="M 349.5,151.5 C 350.644,155.972 351.477,160.638 352,165.5C 352.825,175.675 352.658,185.675 351.5,195.5C 351.82,180.777 351.153,166.11 349.5,151.5 Z"/></g>
<g><path style="opacity:0.95" fill="#fefffe" d="M 503.5,185.5 C 508.5,185.5 513.5,185.5 518.5,185.5C 518.5,211.5 518.5,237.5 518.5,263.5C 513.5,263.5 508.5,263.5 503.5,263.5C 503.5,237.5 503.5,211.5 503.5,185.5 Z"/></g>
<g><path style="opacity:0.868" fill="#fefffe" d="M 535.5,185.5 C 545.987,184.486 550.487,189.153 549,199.5C 542.706,205.072 536.706,204.738 531,198.5C 530.333,195.833 530.333,193.167 531,190.5C 532.707,188.963 534.207,187.296 535.5,185.5 Z"/></g>
<g><path style="opacity:0.93" fill="#fefffe" d="M 882.5,185.5 C 887.5,185.5 892.5,185.5 897.5,185.5C 897.5,211.833 897.5,238.167 897.5,264.5C 892.833,264.5 888.167,264.5 883.5,264.5C 883.664,261.813 883.497,259.146 883,256.5C 880.5,259 878,261.5 875.5,264C 868.5,264.667 861.5,264.667 854.5,264C 851,260.5 847.5,257 844,253.5C 843.333,242.167 843.333,230.833 844,219.5C 847.167,216.333 850.333,213.167 853.5,210C 861.833,209.333 870.167,209.333 878.5,210C 879.667,211.167 880.833,212.333 882,213.5C 882.5,204.173 882.666,194.839 882.5,185.5 Z M 862.5,222.5 C 878.378,220.21 884.878,226.876 882,242.5C 879.5,245 877,247.5 874.5,250C 870.167,250.667 865.833,250.667 861.5,250C 860.789,248.745 859.956,247.579 859,246.5C 858.333,239.833 858.333,233.167 859,226.5C 860.376,225.295 861.542,223.962 862.5,222.5 Z"/></g>
<g><path style="opacity:0.948" fill="#fefffe" d="M 373.5,187.5 C 387.504,187.333 401.504,187.5 415.5,188C 419,191.5 422.5,195 426,198.5C 426.667,216.5 426.667,234.5 426,252.5C 422.5,256 419,259.5 415.5,263C 401.5,263.667 387.5,263.667 373.5,263C 369.667,259.167 365.833,255.333 362,251.5C 361.333,234.167 361.333,216.833 362,199.5C 366.037,195.631 369.87,191.631 373.5,187.5 Z M 382.5,200.5 C 390.174,200.334 397.841,200.5 405.5,201C 407.333,202.833 409.167,204.667 411,206.5C 411.667,219.5 411.667,232.5 411,245.5C 409.5,247 408,248.5 406.5,250C 398.5,250.667 390.5,250.667 382.5,250C 381,248.5 379.5,247 378,245.5C 377.333,232.167 377.333,218.833 378,205.5C 379.707,203.963 381.207,202.296 382.5,200.5 Z"/></g>
<g><path style="opacity:0.92" fill="#fefffe" d="M 752.5,187.5 C 757.833,187.5 763.167,187.5 768.5,187.5C 768.667,208.836 768.5,230.169 768,251.5C 763.833,255.667 759.667,259.833 755.5,264C 745.489,264.333 735.489,264 725.5,263C 721.667,259.167 717.833,255.333 714,251.5C 713.501,246.177 713.334,240.844 713.5,235.5C 718.5,235.5 723.5,235.5 728.5,235.5C 727.846,248.985 734.18,253.819 747.5,250C 749,248.5 750.5,247 752,245.5C 752.5,226.17 752.667,206.836 752.5,187.5 Z"/></g>
<g><path style="opacity:1" fill="#ff6e00" d="M 156.5,187.5 C 168.322,188.495 180.322,188.828 192.5,188.5C 180.327,189.825 167.994,189.825 155.5,188.5C 155.624,187.893 155.957,187.56 156.5,187.5 Z"/></g>
<g><path style="opacity:1" fill="#b8feb7" d="M 306.5,172.5 C 307.657,180.656 307.823,188.99 307,197.5C 306.722,198.416 306.222,199.082 305.5,199.5C 306.347,190.528 306.68,181.528 306.5,172.5 Z"/></g>
<g><path style="opacity:1" fill="#354dff" d="M 22.5,198.5 C 24.0217,203.273 25.0217,208.273 25.5,213.5C 23.9318,211.189 23.0984,208.522 23,205.5C 22.1785,208.117 21.6785,210.784 21.5,213.5C 20.5489,212.081 20.2155,210.415 20.5,208.5C 22.0114,205.456 22.678,202.122 22.5,198.5 Z"/></g>
<g><path style="opacity:0.922" fill="#fefffe" d="M 438.5,209.5 C 443.167,209.5 447.833,209.5 452.5,209.5C 452.337,211.857 452.503,214.19 453,216.5C 455.167,214.333 457.333,212.167 459.5,210C 466.5,209.333 473.5,209.333 480.5,210C 484,213.5 487.5,217 491,220.5C 491.5,234.829 491.667,249.163 491.5,263.5C 486.167,263.5 480.833,263.5 475.5,263.5C 475.667,250.829 475.5,238.162 475,225.5C 471.743,222.572 467.909,221.738 463.5,223C 460.333,226.167 457.167,229.333 454,232.5C 453.5,242.828 453.334,253.161 453.5,263.5C 448.5,263.5 443.5,263.5 438.5,263.5C 438.5,245.5 438.5,227.5 438.5,209.5 Z"/></g>
<g><path style="opacity:0.958" fill="#fefffe" d="M 532.5,209.5 C 537.5,209.5 542.5,209.5 547.5,209.5C 547.5,227.5 547.5,245.5 547.5,263.5C 542.5,263.5 537.5,263.5 532.5,263.5C 532.5,245.5 532.5,227.5 532.5,209.5 Z"/></g>
<g><path style="opacity:0.922" fill="#fefffe" d="M 560.5,209.5 C 565.167,209.5 569.833,209.5 574.5,209.5C 574.337,211.857 574.503,214.19 575,216.5C 577.167,214.333 579.333,212.167 581.5,210C 588.5,209.333 595.5,209.333 602.5,210C 606,213.5 609.5,217 613,220.5C 613.5,234.829 613.667,249.163 613.5,263.5C 608.167,263.5 602.833,263.5 597.5,263.5C 597.667,250.829 597.5,238.162 597,225.5C 593.743,222.572 589.909,221.738 585.5,223C 582.333,226.167 579.167,229.333 576,232.5C 575.5,242.828 575.334,253.161 575.5,263.5C 570.5,263.5 565.5,263.5 560.5,263.5C 560.5,245.5 560.5,227.5 560.5,209.5 Z"/></g>
<g><path style="opacity:0.942" fill="#fefffe" d="M 633.5,209.5 C 644.505,209.333 655.505,209.5 666.5,210C 670,213.5 673.5,217 677,220.5C 677.5,227.492 677.666,234.492 677.5,241.5C 664.5,241.5 651.5,241.5 638.5,241.5C 637.814,245.287 638.814,248.454 641.5,251C 647.5,251.667 653.5,251.667 659.5,251C 661.607,249.736 662.607,247.903 662.5,245.5C 667.5,245.5 672.5,245.5 677.5,245.5C 677.664,248.187 677.497,250.854 677,253.5C 673.833,256.667 670.667,259.833 667.5,263C 656.167,263.667 644.833,263.667 633.5,263C 630.333,259.833 627.167,256.667 624,253.5C 623.333,242.167 623.333,230.833 624,219.5C 627.371,216.297 630.538,212.964 633.5,209.5 Z M 642.5,221.5 C 647.844,221.334 653.177,221.501 658.5,222C 661.125,224.196 662.125,227.03 661.5,230.5C 653.833,230.5 646.167,230.5 638.5,230.5C 638.34,228.801 638.506,227.134 639,225.5C 640.376,224.295 641.542,222.962 642.5,221.5 Z"/></g>
<g><path style="opacity:0.912" fill="#fefffe" d="M 779.5,209.5 C 784.833,209.5 790.167,209.5 795.5,209.5C 795.333,222.171 795.5,234.838 796,247.5C 799.257,250.428 803.091,251.262 807.5,250C 810.667,246.833 813.833,243.667 817,240.5C 817.5,230.172 817.666,219.839 817.5,209.5C 822.5,209.5 827.5,209.5 832.5,209.5C 832.5,227.833 832.5,246.167 832.5,264.5C 827.833,264.5 823.167,264.5 818.5,264.5C 818.664,261.813 818.497,259.146 818,256.5C 810.914,264.299 802.081,266.799 791.5,264C 787.667,260.167 783.833,256.333 780,252.5C 779.5,238.171 779.333,223.837 779.5,209.5 Z"/></g>
<g><path style="opacity:0.937" fill="#fefffe" d="M 918.5,209.5 C 926.507,209.334 934.507,209.5 942.5,210C 944.333,211.833 946.167,213.667 948,215.5C 948.495,213.527 948.662,211.527 948.5,209.5C 953.167,209.5 957.833,209.5 962.5,209.5C 962.833,232.176 962.5,254.843 961.5,277.5C 958.015,280.484 954.682,283.651 951.5,287C 940.833,287.667 930.167,287.667 919.5,287C 916.667,284.167 913.833,281.333 911,278.5C 910.502,275.518 910.335,272.518 910.5,269.5C 915.5,269.5 920.5,269.5 925.5,269.5C 925.472,271.582 926.139,273.416 927.5,275C 943.128,279.688 949.628,274.188 947,258.5C 945.127,260.709 942.96,262.542 940.5,264C 933.5,264.667 926.5,264.667 919.5,264C 916,260.5 912.5,257 909,253.5C 908.333,242.167 908.333,230.833 909,219.5C 912.371,216.297 915.538,212.964 918.5,209.5 Z M 927.5,222.5 C 943.378,220.21 949.878,226.876 947,242.5C 944.5,245 942,247.5 939.5,250C 935.167,250.667 930.833,250.667 926.5,250C 925.789,248.745 924.956,247.579 924,246.5C 923.333,239.833 923.333,233.167 924,226.5C 925.376,225.295 926.542,223.962 927.5,222.5 Z"/></g>
<g><path style="opacity:0.939" fill="#fefffe" d="M 1026.5,219.5 C 1026.5,226.833 1026.5,234.167 1026.5,241.5C 1013.83,241.5 1001.17,241.5 988.5,241.5C 987.814,245.287 988.814,248.454 991.5,251C 997.5,251.667 1003.5,251.667 1009.5,251C 1011.61,249.736 1012.61,247.903 1012.5,245.5C 1017.17,245.5 1021.83,245.5 1026.5,245.5C 1026.5,248.5 1026.5,251.5 1026.5,254.5C 1023.04,257.462 1019.7,260.629 1016.5,264C 1005.83,264.667 995.167,264.667 984.5,264C 981,260.5 977.5,257 974,253.5C 973.333,242.167 973.333,230.833 974,219.5C 977.167,216.333 980.333,213.167 983.5,210C 994.5,209.333 1005.5,209.333 1016.5,210C 1019.7,213.371 1023.04,216.538 1026.5,219.5 Z M 992.5,221.5 C 997.844,221.334 1003.18,221.501 1008.5,222C 1011.13,224.196 1012.13,227.03 1011.5,230.5C 1003.83,230.5 996.167,230.5 988.5,230.5C 988.34,228.801 988.506,227.134 989,225.5C 990.376,224.295 991.542,222.962 992.5,221.5 Z"/></g>
<g><path style="opacity:0.22" fill="#bcc2ff" d="M 17.5,169.5 C 17.8333,169.5 18.1667,169.5 18.5,169.5C 18.0081,182.624 18.6748,195.624 20.5,208.5C 20.2155,210.415 20.5489,212.081 21.5,213.5C 23.4237,222.937 25.757,232.271 28.5,241.5C 18.4014,218.639 14.7348,194.639 17.5,169.5 Z"/></g>
<g><path style="opacity:1" fill="#54cecd" d="M 237.5,169.5 C 238.492,176.982 238.825,184.648 238.5,192.5C 238.665,196.182 238.499,199.848 238,203.5C 236.837,221.322 227.671,232.489 210.5,237C 198.492,238.94 186.492,238.94 174.5,237C 146.636,227.235 120.636,214.069 96.5,197.5C 96.8333,196.833 97.1667,196.167 97.5,195.5C 120.252,211.712 144.918,224.545 171.5,234C 184.402,236.995 197.402,237.328 210.5,235C 226.32,230.506 234.82,220.006 236,203.5C 237.135,192.194 237.635,180.861 237.5,169.5 Z"/></g>
<g><path style="opacity:0.392" fill="#b9c1ff" d="M 28.5,241.5 C 29.9313,242.78 30.5979,244.447 30.5,246.5C 29.0687,245.22 28.4021,243.553 28.5,241.5 Z"/></g>
<g><path style="opacity:0.188" fill="#c5cbff" d="M 30.5,246.5 C 31.9313,247.78 32.5979,249.447 32.5,251.5C 31.0687,250.22 30.4021,248.553 30.5,246.5 Z"/></g>
<g><path style="opacity:1" fill="#f33527" d="M 310.5,265.5 C 310.539,264.417 310.873,263.417 311.5,262.5C 306.914,259.624 302.414,256.624 298,253.5C 297.163,255.007 295.996,255.507 294.5,255C 296.211,252.411 298.045,249.911 300,247.5C 300.333,248.5 300.667,249.5 301,250.5C 305.58,254.718 310.747,257.051 316.5,257.5C 314.479,260.235 312.479,262.901 310.5,265.5 Z"/></g>
<g><path style="opacity:1" fill="#f52d21" d="M 73.5,248.5 C 74.4959,248.414 75.3292,248.748 76,249.5C 80.1134,255.947 84.6134,262.114 89.5,268C 81.2816,269.889 80.6149,273.055 87.5,277.5C 90.7159,275.873 92.2159,273.539 92,270.5C 94.0176,272.35 95.8509,274.35 97.5,276.5C 92.6332,278.598 88.1332,281.931 84,286.5C 84.0773,287.738 83.9106,288.738 83.5,289.5C 81.1667,287.833 79.1667,285.833 77.5,283.5C 78.3914,282.41 79.3914,282.41 80.5,283.5C 86.0748,281.633 86.7415,278.799 82.5,275C 79.5377,274.91 77.2043,276.243 75.5,279C 76.4506,279.718 76.6172,280.551 76,281.5C 73.3869,279.599 71.7203,277.265 71,274.5C 71.7175,275.451 72.5509,275.617 73.5,275C 77.0945,271.95 80.5945,268.784 84,265.5C 84.5908,264.517 84.2575,263.85 83,263.5C 81.395,264.101 80.0616,265.101 79,266.5C 80.0456,264.098 80.5456,261.432 80.5,258.5C 75.2192,260.478 70.5526,263.478 66.5,267.5C 67.3256,268.451 67.4922,269.451 67,270.5C 64.3424,267.894 62.6758,264.894 62,261.5C 62.6667,262.167 63.3333,262.833 64,263.5C 68.4672,260.688 72.6338,257.521 76.5,254C 76.2664,252.268 75.2664,251.434 73.5,251.5C 71.8453,252.228 70.1786,252.395 68.5,252C 70.3464,250.97 72.0131,249.804 73.5,248.5 Z"/></g>
<g><path style="opacity:0.047" fill="#c9d0ff" d="M 32.5,251.5 C 35.7511,257.001 38.7511,262.667 41.5,268.5C 37.2103,263.591 34.2103,257.924 32.5,251.5 Z"/></g>
<g><path style="opacity:1" fill="#f42c22" d="M 310.5,265.5 C 309.419,267.764 308.085,269.931 306.5,272C 304.414,272.627 304.081,272.127 305.5,270.5C 304.562,269.447 303.395,268.78 302,268.5C 298.799,270.334 297.466,273.001 298,276.5C 299.425,277.212 300.925,277.379 302.5,277C 300.981,278.351 299.648,279.851 298.5,281.5C 295.439,275.045 292.106,268.712 288.5,262.5C 289,262.167 289.5,261.833 290,261.5C 295.804,263.268 301.637,264.935 307.5,266.5C 308.584,266.315 309.584,265.982 310.5,265.5 Z"/></g>
<g><path style="opacity:0.203" fill="#e7e9ff" d="M 356.5,192.5 C 357.473,209.942 354.307,226.609 347,242.5C 335.032,274.159 315.199,299.493 287.5,318.5C 328.529,286.447 351.529,244.447 356.5,192.5 Z"/></g>
<g><path style="opacity:1" fill="#a6e0df" d="M 292.5,267.5 C 294.017,266.265 295.684,266.265 297.5,267.5C 298.761,269.562 298.261,271.228 296,272.5C 294.811,270.767 293.644,269.1 292.5,267.5 Z"/></g>
<g><path style="opacity:0.173" fill="#bbc1ff" d="M 41.5,268.5 C 42.9063,268.973 43.573,269.973 43.5,271.5C 42.0937,271.027 41.427,270.027 41.5,268.5 Z"/></g>
<g><path style="opacity:0.976" fill="#867aff" d="M 44.5,273.5 C 45.5,273.5 46.5,273.5 47.5,273.5C 47.8782,275.921 48.5448,278.254 49.5,280.5C 47.4776,278.469 45.8109,276.135 44.5,273.5 Z"/></g>
<g><path style="opacity:1" fill="#ed4939" d="M 106.5,275.5 C 107.496,275.414 108.329,275.748 109,276.5C 109.798,278.259 109.631,279.926 108.5,281.5C 107.232,279.696 106.565,277.696 106.5,275.5 Z"/></g>
<g><path style="opacity:1" fill="#f42f24" d="M 282.5,270.5 C 285.323,271.148 286.823,272.814 287,275.5C 282.464,272.258 279.298,273.258 277.5,278.5C 279.521,285.042 283.854,288.209 290.5,288C 292.729,285.447 293.062,282.614 291.5,279.5C 292.355,278.707 293.189,279.04 294,280.5C 294.181,288.977 290.014,292.477 281.5,291C 275.894,287.677 274.061,282.844 276,276.5C 278.116,274.208 280.282,272.208 282.5,270.5 Z"/></g>
<g><path style="opacity:0.071" fill="#abb2ff" d="M 49.5,280.5 C 51.2624,281.262 52.2624,282.596 52.5,284.5C 50.7376,283.738 49.7376,282.404 49.5,280.5 Z"/></g>
<g><path style="opacity:0.047" fill="#a6afff" d="M 52.5,284.5 C 54.2624,285.262 55.2624,286.596 55.5,288.5C 53.7376,287.738 52.7376,286.404 52.5,284.5 Z"/></g>
<g><path style="opacity:0.016" fill="#b4bbff" d="M 57.5,290.5 C 59.2624,291.262 60.2624,292.596 60.5,294.5C 58.7376,293.738 57.7376,292.404 57.5,290.5 Z"/></g>
<g><path style="opacity:1" fill="#f52b20" d="M 258.5,289.5 C 268.442,288.277 272.942,292.61 272,302.5C 268.944,308.943 264.111,310.776 257.5,308C 250.549,301.27 250.882,295.104 258.5,289.5 Z"/></g>
<g><path style="opacity:1" fill="#9ff1f0" d="M 257.5,291.5 C 263.322,291.136 267.155,293.803 269,299.5C 270.65,304.068 269.15,306.734 264.5,307.5C 262.617,307.124 261.117,306.124 260,304.5C 257.97,301.774 256.47,298.774 255.5,295.5C 255.752,293.927 256.418,292.594 257.5,291.5 Z"/></g>
<g><path style="opacity:1" fill="#fa120f" d="M 236.5,294.5 C 238.308,294.491 239.975,294.991 241.5,296C 240.667,296.167 239.833,296.333 239,296.5C 237.624,296.316 236.791,295.649 236.5,294.5 Z"/></g>
<g><path style="opacity:0.004" fill="#c2ccff" d="M 64.5,298.5 C 66.1667,299.5 67.5,300.833 68.5,302.5C 66.1667,302.167 64.8333,300.833 64.5,298.5 Z"/></g>
<g><path style="opacity:1" fill="#f43024" d="M 102.5,282.5 C 103.5,282.5 104.5,282.5 105.5,282.5C 103.853,288.474 102.186,294.474 100.5,300.5C 101.38,303.517 103.214,304.184 106,302.5C 108.167,298.833 110.333,295.167 112.5,291.5C 112.023,290.522 111.357,289.689 110.5,289C 112.678,288.835 114.511,289.668 116,291.5C 117,296.5 118,301.5 119,306.5C 122.142,302.932 123.475,298.932 123,294.5C 127.29,297.395 131.79,299.895 136.5,302C 133.388,302.454 131.722,304.287 131.5,307.5C 135.552,311.984 138.552,311.318 140.5,305.5C 140.023,304.522 139.357,303.689 138.5,303C 141.275,303.374 143.942,304.374 146.5,306C 144.185,307.109 142.685,308.943 142,311.5C 140.833,314.5 139.667,317.5 138.5,320.5C 138.977,321.478 139.643,322.311 140.5,323C 137.537,323.01 134.871,322.01 132.5,320C 138.143,316.022 137.81,312.855 131.5,310.5C 130.914,310.709 130.414,311.043 130,311.5C 128.58,314.184 128.08,316.851 128.5,319.5C 126.088,318.423 123.754,317.256 121.5,316C 122.448,315.517 123.448,315.351 124.5,315.5C 125.859,310.59 127.526,305.756 129.5,301C 128.404,298.853 126.904,298.353 125,299.5C 122.651,304.212 119.817,308.545 116.5,312.5C 115.914,312.291 115.414,311.957 115,311.5C 114.794,305.728 113.961,300.061 112.5,294.5C 109.503,298.797 107.503,303.13 106.5,307.5C 101.394,305.203 97.5609,301.87 95,297.5C 97.0545,298.495 98.2212,297.662 98.5,295C 96.6657,291.799 93.9991,290.466 90.5,291C 89.7877,292.425 89.621,293.925 90,295.5C 88.6487,293.981 87.1487,292.648 85.5,291.5C 91.4326,288.876 97.0993,285.876 102.5,282.5 Z"/></g>
<g><path style="opacity:1" fill="#9cecec" d="M 98.5,286.5 C 99.3764,286.369 100.043,286.702 100.5,287.5C 99.7542,288.736 99.4208,290.07 99.5,291.5C 93.6223,290.363 93.2889,288.696 98.5,286.5 Z"/></g>
<g><path style="opacity:1" fill="#f52820" d="M 240.5,319.5 C 241.167,317.167 241.833,314.833 242.5,312.5C 244.14,311.68 245.807,310.847 247.5,310C 246.295,308.624 244.962,307.458 243.5,306.5C 243.44,305.957 243.107,305.624 242.5,305.5C 241.831,307.631 241.165,309.631 240.5,311.5C 240.176,307.445 240.509,303.445 241.5,299.5C 246.018,303.852 250.684,308.019 255.5,312C 256.5,312.333 257.5,312.667 258.5,313C 256.246,314.256 253.912,315.423 251.5,316.5C 251.051,311.33 248.384,310.33 243.5,313.5C 242.548,315.045 242.215,316.712 242.5,318.5C 243.873,318.343 245.207,318.51 246.5,319C 244.833,319.833 243.167,320.667 241.5,321.5C 240.702,321.043 240.369,320.376 240.5,319.5 Z"/></g>
<g><path style="opacity:1" fill="#f62019" d="M 206.5,300.5 C 208.885,301.867 208.552,303.201 205.5,304.5C 205.167,304.167 204.833,303.833 204.5,303.5C 205.193,302.482 205.859,301.482 206.5,300.5 Z"/></g>
<g><path style="opacity:1" fill="#f1352a" d="M 196.5,304.5 C 198.199,304.34 199.866,304.506 201.5,305C 204.229,309.012 203.563,309.512 199.5,306.5C 195.613,310.757 194.613,310.09 196.5,304.5 Z"/></g>
<g><path style="opacity:0.651" fill="#7b84ff" d="M 72.5,306.5 C 74.7488,307.08 76.4154,308.413 77.5,310.5C 75.2512,309.92 73.5846,308.587 72.5,306.5 Z"/></g>
<g><path style="opacity:1" fill="#f23428" d="M 224.5,305.5 C 225.376,305.369 226.043,305.702 226.5,306.5C 225.689,307.216 225.022,308.05 224.5,309C 225.9,313.846 227.234,318.679 228.5,323.5C 233.946,323.051 236.612,320.051 236.5,314.5C 237.795,317.012 238.461,319.679 238.5,322.5C 233.228,324.208 227.895,325.375 222.5,326C 223.574,325.261 224.241,324.261 224.5,323C 223.256,319.19 222.089,315.356 221,311.5C 220.1,310.23 218.934,309.23 217.5,308.5C 220,307.641 222.333,306.641 224.5,305.5 Z"/></g>
<g><path style="opacity:1" fill="#9deaea" d="M 243.5,306.5 C 244.962,307.458 246.295,308.624 247.5,310C 245.807,310.847 244.14,311.68 242.5,312.5C 242.205,310.265 242.539,308.265 243.5,306.5 Z"/></g>
<g><path style="opacity:1" fill="#f23629" d="M 153.5,307.5 C 159.791,307.461 165.291,309.461 170,313.5C 170.825,315.701 170.325,317.534 168.5,319C 165.312,320.316 161.978,320.816 158.5,320.5C 158.167,322.5 157.833,324.5 157.5,326.5C 158.675,326.281 159.675,326.614 160.5,327.5C 160,327.833 159.5,328.167 159,328.5C 156.138,327.972 153.304,327.305 150.5,326.5C 151.325,325.614 152.325,325.281 153.5,325.5C 154.285,320.124 155.285,314.791 156.5,309.5C 154.821,309.715 153.821,309.048 153.5,307.5 Z"/></g>
<g><path style="opacity:1" fill="#2a33ff" d="M 25.5,213.5 C 40.4455,277.448 79.1122,319.781 141.5,340.5C 141.5,341.5 141.5,342.5 141.5,343.5C 138.167,342.833 134.833,342.167 131.5,341.5C 125.434,339.961 119.767,337.628 114.5,334.5C 111.485,332.326 108.151,330.659 104.5,329.5C 97.2889,325.946 90.6223,321.613 84.5,316.5C 83.4154,314.413 81.7488,313.08 79.5,312.5C 78.5,312.167 77.8333,311.5 77.5,310.5C 76.4154,308.413 74.7488,307.08 72.5,306.5C 70.8333,305.5 69.5,304.167 68.5,302.5C 67.5,300.833 66.1667,299.5 64.5,298.5C 62.8333,297.5 61.5,296.167 60.5,294.5C 60.2624,292.596 59.2624,291.262 57.5,290.5C 56.5,290.167 55.8333,289.5 55.5,288.5C 55.2624,286.596 54.2624,285.262 52.5,284.5C 52.2624,282.596 51.2624,281.262 49.5,280.5C 48.5448,278.254 47.8782,275.921 47.5,273.5C 46.5,273.5 45.5,273.5 44.5,273.5C 43.6618,273.158 43.3284,272.492 43.5,271.5C 43.573,269.973 42.9063,268.973 41.5,268.5C 38.7511,262.667 35.7511,257.001 32.5,251.5C 32.5979,249.447 31.9313,247.78 30.5,246.5C 30.5979,244.447 29.9313,242.78 28.5,241.5C 25.757,232.271 23.4237,222.937 21.5,213.5C 21.6785,210.784 22.1785,208.117 23,205.5C 23.0984,208.522 23.9318,211.189 25.5,213.5 Z"/></g>
<g><path style="opacity:1" fill="#d27170" d="M 243.5,306.5 C 242.539,308.265 242.205,310.265 242.5,312.5C 241.833,314.833 241.167,317.167 240.5,319.5C 240.5,316.833 240.5,314.167 240.5,311.5C 241.165,309.631 241.831,307.631 242.5,305.5C 243.107,305.624 243.44,305.957 243.5,306.5 Z"/></g>
<g><path style="opacity:0.612" fill="#808cff" d="M 79.5,312.5 C 81.7488,313.08 83.4154,314.413 84.5,316.5C 82.2512,315.92 80.5846,314.587 79.5,312.5 Z"/></g>
<g><path style="opacity:1" fill="#a3eae9" d="M 160.5,310.5 C 166.501,310.741 167.834,313.241 164.5,318C 162.866,318.494 161.199,318.66 159.5,318.5C 159.279,315.721 159.612,313.054 160.5,310.5 Z"/></g>
<g><path style="opacity:1" fill="#f43326" d="M 183.5,329.5 C 184.473,327.052 184.806,324.385 184.5,321.5C 181.833,321.5 179.167,321.5 176.5,321.5C 176.194,324.385 176.527,327.052 177.5,329.5C 175.971,330.636 173.638,330.802 170.5,330C 171.776,327.276 172.442,324.276 172.5,321C 172.478,317.914 172.145,314.914 171.5,312C 174.167,311.333 176.833,311.333 179.5,312C 177.679,314.456 177.012,317.289 177.5,320.5C 179.833,320.5 182.167,320.5 184.5,320.5C 184.98,317.315 184.314,314.481 182.5,312C 185.227,311.182 187.894,311.348 190.5,312.5C 189.268,315.3 188.601,318.3 188.5,321.5C 188.601,324.7 189.268,327.7 190.5,330.5C 187.5,331.833 184.5,331.833 181.5,330.5C 181.957,329.702 182.624,329.369 183.5,329.5 Z"/></g>
<g><path style="opacity:1" fill="#f52e22" d="M 198.5,310.5 C 208.453,310.096 212.62,314.763 211,324.5C 208.081,330.025 203.581,331.858 197.5,330C 189.202,323.009 189.535,316.509 198.5,310.5 Z"/></g>
<g><path style="opacity:1" fill="#9cf5f5" d="M 198.5,312.5 C 200.527,312.338 202.527,312.505 204.5,313C 206.51,317.609 207.01,322.442 206,327.5C 201.869,330.543 198.869,329.543 197,324.5C 195.994,320.198 196.494,316.198 198.5,312.5 Z"/></g>
<g><path style="opacity:0.106" fill="#e5e7ff" d="M 287.5,318.5 C 287.027,319.906 286.027,320.573 284.5,320.5C 284.973,319.094 285.973,318.427 287.5,318.5 Z"/></g>
<g><path style="opacity:1" fill="#b9acab" d="M 183.5,329.5 C 183.5,327.167 183.5,324.833 183.5,322.5C 181.5,322.5 179.5,322.5 177.5,322.5C 177.5,324.833 177.5,327.167 177.5,329.5C 176.527,327.052 176.194,324.385 176.5,321.5C 179.167,321.5 181.833,321.5 184.5,321.5C 184.806,324.385 184.473,327.052 183.5,329.5 Z"/></g>
<g><path style="opacity:0.004" fill="#dde0ff" d="M 284.5,320.5 C 282.049,323.277 279.049,325.277 275.5,326.5C 277.975,323.759 280.975,321.759 284.5,320.5 Z"/></g>
<g><path style="opacity:0.108" fill="#bfc6ff" d="M 275.5,326.5 C 271.26,330.455 266.26,333.122 260.5,334.5C 265.333,331.582 270.333,328.916 275.5,326.5 Z"/></g>
<g><path style="opacity:0.494" fill="#6676ff" d="M 104.5,329.5 C 108.151,330.659 111.485,332.326 114.5,334.5C 110.58,333.873 107.247,332.207 104.5,329.5 Z"/></g>
<g><path style="opacity:0.035" fill="#9aa4ff" d="M 258.5,335.5 C 247.143,341.399 235.143,345.732 222.5,348.5C 222.47,347.503 222.97,346.836 224,346.5C 235.678,343.329 247.178,339.662 258.5,335.5 Z"/></g>
<g><path style="opacity:0.894" fill="#4959ff" d="M 141.5,340.5 C 142.791,340.263 143.791,340.596 144.5,341.5C 142.952,341.821 142.285,342.821 142.5,344.5C 146.554,344.507 149.887,345.84 152.5,348.5C 145.22,346.74 138.22,344.407 131.5,341.5C 134.833,342.167 138.167,342.833 141.5,343.5C 141.5,342.5 141.5,341.5 141.5,340.5 Z"/></g>
<g><path style="opacity:1" fill="#80d1ff" d="M 162.5,344.5 C 175.482,345.327 188.482,345.661 201.5,345.5C 196.344,346.166 191.011,346.499 185.5,346.5C 177.606,346.689 169.939,346.022 162.5,344.5 Z"/></g>
<g><path style="opacity:0.639" fill="#808eff" d="M 221.5,348.5 C 217.566,349.36 213.566,349.693 209.5,349.5C 213.446,347.838 217.446,347.504 221.5,348.5 Z"/></g>
</svg>
